<?xml version="1.0" encoding="UTF-8" standalone="no"?><!DOCTYPE svg PUBLIC "-//W3C//DTD SVG 1.1//EN" "http://www.w3.org/Graphics/SVG/1.1/DTD/svg11.dtd"><svg width="100%" height="100%" viewBox="0 0 100 100" version="1.1" xmlns="http://www.w3.org/2000/svg" xmlns:xlink="http://www.w3.org/1999/xlink" xml:space="preserve" style="fill-rule:evenodd;clip-rule:evenodd;stroke-linejoin:round;stroke-miterlimit:1.41421;"><g><rect x="0" y="0" width="100" height="100" style="fill:#e5fff7;"/><path id="Mask_3_" d="M100,100l0,-14c0,0 -21.2,-4.9 -28,-6.7c-2.5,-0.7 -7,-3.3 -7,-12c0,-1.7 0,-6.3 0,-6.3l-15,0l-15,0c0,0 0,4.6 0,6.3c0,8.7 -4.5,11.3 -7,12c-6.8,1.9 -28.1,7.3 -28.1,6.7l0,14l100.1,0Z" style="fill:#34ba92;fill-rule:nonzero;"/><clipPath id="_clip1"><path id="head.-shadow" d="M100,100l0,-14c0,0 -21.2,-4.9 -28,-6.7c-2.5,-0.7 -7,-3.3 -7,-12c0,-1.7 0,-6.3 0,-6.3l-15,0l-15,0c0,0 0,4.6 0,6.3c0,8.7 -4.5,11.3 -7,12c-6.8,1.9 -28.1,7.3 -28.1,6.7l0,14l100.1,0Z"/></clipPath><g clip-path="url(#_clip1)"><path d="M50,79.1c12.7,0 23,-18.6 23,-34.4c0,-16.2 -10.3,-24.7 -23,-24.7c-12.7,0 -23,8.5 -23,24.7c0,15.8 10.3,34.4 23,34.4Z" style="fill:#0f8461;fill-rule:nonzero;"/></g><circle id="Mask_2_" cx="50" cy="50" r="50" style="fill:none;"/><path id="head" d="M50,75c12.7,0 23,-16.3 23,-31c0,-15.1 -10.3,-23 -23,-23c-12.7,0 -23,7.9 -23,23c0,14.7 10.3,31 23,31Z" style="fill:#34ba92;fill-rule:nonzero;"/></g></svg>