<svg viewBox="0 0 100 100" xmlns="http://www.w3.org/2000/svg" fill-rule="evenodd" clip-rule="evenodd" stroke-linejoin="round" stroke-miterlimit="1.414"><path fill="#e5fff7" d="M0 0h100v100H0z"/><path d="M100 100V86s-21.2-4.9-28-6.7c-2.5-.7-7-3.3-7-12V61H35v6.3c0 8.7-4.5 11.3-7 12C21.2 81.2-.1 86.6-.1 86v14H100z" fill="#34ba92" fill-rule="nonzero"/><clipPath id="a"><path d="M100 100V86s-21.2-4.9-28-6.7c-2.5-.7-7-3.3-7-12V61H35v6.3c0 8.7-4.5 11.3-7 12C21.2 81.2-.1 86.6-.1 86v14H100z"/></clipPath><g clip-path="url(#a)"><path d="M50 79.1c12.7 0 23-18.6 23-34.4C73 28.5 62.7 20 50 20s-23 8.5-23 24.7c0 15.8 10.3 34.4 23 34.4z" fill="#0f8461" fill-rule="nonzero"/></g><circle cx="50" cy="50" r="50" fill="none"/><path d="M50 75c12.7 0 23-16.3 23-31 0-15.1-10.3-23-23-23s-23 7.9-23 23c0 14.7 10.3 31 23 31z" fill="#34ba92" fill-rule="nonzero"/></svg>