<svg id="Capa_1" data-name="Capa 1" xmlns="http://www.w3.org/2000/svg" viewBox="0 0 213.51 266.55"><defs><style>.cls-1{fill:#8d172d}.cls-2{fill:#fff}.cls-3{fill:#178d38}.cls-4{fill:none}.cls-5{fill:#3d0f17}</style></defs><title>propuesta_logo [Recuperado]</title><path class="cls-1" d="M89.7 103L72 85.31l-5.38-5.38s-5.29-6.68-15 3-4.14 14.59-4.14 14.59l3.13 3.13 4.5-4.51s5.2-5.54 10.52-.23l8.86 8.86a5 5 0 0 0 .43.39l2.52 2.52v17.88l12.26-12z"/><path class="cls-2" d="M76.94 125.57V107.9l-2.38-2.38c-.26-.22-.43-.39-.43-.39l-8.86-8.85a6.35 6.35 0 0 0-4.68-2.16 8.21 8.21 0 0 0-5.12 2.37l-4.86 4.87-3.48-3.47a6.16 6.16 0 0 1-1.73-4.28c-.11-3.31 1.86-7 5.87-11C55 78.82 58.62 77 61.92 77.19A7.26 7.26 0 0 1 67 79.61l23.2 23.17v10.8h-1v-10.39L66.27 80.28a6.41 6.41 0 0 0-4.43-2.09c-3-.18-6.31 1.55-9.87 5.11-3.74 3.7-5.67 7.3-5.57 10.28a5.15 5.15 0 0 0 1.41 3.58l2.8 2.79 4.15-4.15a9 9 0 0 1 5.81-2.68h.1A7.42 7.42 0 0 1 66 95.57l8.86 8.86s.15.15.4.36l2.7 2.69v18.09z"/><path class="cls-3" d="M105.48 36.78l-3.12 3.12 4.5 4.5s5.54 5.21.23 10.52l-8.86 8.86a5 5 0 0 0-.39.43l-2.52 2.52H77.44v14.34c-3.79-.1-9.37 1.82-17 9.41-15.44 15.52-7.57 21.4-7.57 21.4l7.06 7 .07.12 14.76-14.76L89.43 89.6V79H100l17.7-17.69 5.38-5.38s6.68-5.29-3-15-14.6-4.15-14.6-4.15zm-44.32 65.83a4.2 4.2 0 0 1 .6.3l.1.06a3.3 3.3 0 0 1 .62.51 3.76 3.76 0 1 1-5.31 5.31 5 5 0 0 1-.51-.63.93.93 0 0 1-.05-.1 3.7 3.7 0 0 1-.31-.59 3.85 3.85 0 0 1-.26-1.46 3.65 3.65 0 0 1 1.07-2.56 3.7 3.7 0 0 1 2.56-1.07 3.88 3.88 0 0 1 1.49.23z"/><path class="cls-2" d="M60 119.56l-.36-.41-7-7a6.38 6.38 0 0 1-2.08-4.61c-.23-3.25 1.27-8.89 9.69-17.32 6.28-6.28 11.95-9.48 16.85-9.52V66.36h18.1l2.42-2.42c.22-.26.39-.43.39-.43l8.85-8.86a6.6 6.6 0 0 0 2.2-4.78 8.19 8.19 0 0 0-2.42-5.19l-4.78-4.78 3.38-3.38a6 6 0 0 1 4.2-1.7c3.28-.12 6.95 1.85 10.93 5.83 3.75 3.74 5.55 7.3 5.36 10.56a7.11 7.11 0 0 1-2.37 5l-23.18 23.15H89.81v10.08l.15.15-.26.27L60 119.53zm17.15-38.12c-4.71 0-10.23 3.13-16.41 9.3-8.2 8.21-9.68 13.61-9.48 16.71a5.85 5.85 0 0 0 1.83 4.13l6.94 6.9L88.9 89.6l.16-.16V78.61h10.81l22.95-23a6.54 6.54 0 0 0 2.13-4.5c.16-3-1.57-6.39-5.15-10-3.77-3.77-7.37-5.68-10.37-5.62a5.26 5.26 0 0 0-3.67 1.51l-2.85 2.86 4.23 4.24a8.91 8.91 0 0 1 2.65 5.72 7.32 7.32 0 0 1-2.42 5.33l-8.86 8.86s-.15.15-.36.4l-2.66 2.66H77.81v14.38h-.66zM60 110.33a4.26 4.26 0 0 1-3-1.26 4.5 4.5 0 0 1-.56-.68v-.1a3.63 3.63 0 0 1-.35-.67 4.39 4.39 0 0 1-.3-1.64 4.06 4.06 0 0 1 1.18-2.82 4 4 0 0 1 2.72-1.16 4.61 4.61 0 0 1 1.6.28 4 4 0 0 1 .69.34l.11.07a5.11 5.11 0 0 1 .68.55 4.23 4.23 0 0 1 1.26 3 4 4 0 0 1-4.03 4.09zm-.2-7.6h-.06a3.29 3.29 0 0 0-2.31 1 3.34 3.34 0 0 0-1 2.3 3.54 3.54 0 0 0 .24 1.32 3.14 3.14 0 0 0 .29.58l.04.07a3.51 3.51 0 0 0 .46.56 3.43 3.43 0 0 0 4.85.08 3.29 3.29 0 0 0 1-2.41 3.5 3.5 0 0 0-1-2.45 3.7 3.7 0 0 0-.57-.46l.11-.37-.2.32a3.4 3.4 0 0 0-.54-.27l.1-.37-.21.37a3.69 3.69 0 0 0-1.23-.27z"/><path class="cls-1" d="M167.53 94.77l-3.12-3.12-4.51 4.5s-5.2 5.54-10.52.23l-8.86-8.86a5 5 0 0 0-.43-.39l-2.52-2.52V66.73h-14.33c.1-3.79-1.82-9.37-9.41-17-15.48-15.47-21.4-7.61-21.4-7.61l-7 7.06-.1.08 14.76 14.76 14.65 14.65h10.6v10.65L143 107l5.38 5.38s5.29 6.69 15-3 4.15-14.61 4.15-14.61zm-65.84-44.32a3.41 3.41 0 0 1-.31.6.33.33 0 0 1-.06.1 4.19 4.19 0 0 1-.5.63 3.76 3.76 0 1 1-5.32-5.28 3.67 3.67 0 0 1 .62-.5l.1-.06a4.25 4.25 0 0 1 .6-.31 3.88 3.88 0 0 1 1.46-.26 3.7 3.7 0 0 1 2.56 1.07A3.65 3.65 0 0 1 102 49a3.88 3.88 0 0 1-.31 1.45z"/><path class="cls-2" d="M153.56 115.12h-.47a7.26 7.26 0 0 1-5.09-2.42l-23.19-23.18V79.23h-9.9l-.2.19-.36-.34-29.8-29.79.53-.45 7-7a6.56 6.56 0 0 1 4.7-2.13c3.28-.22 9 1.28 17.41 9.73 6.25 6.26 9.47 11.91 9.56 16.82h14.33V84.4l2.38 2.38c.26.22.43.39.43.39l8.85 8.83a6.43 6.43 0 0 0 4.69 2.15 8.1 8.1 0 0 0 5.11-2.37l4.87-4.87 3.46 3.47a6.08 6.08 0 0 1 1.74 4.28c.11 3.31-1.86 7-5.86 11-3.6 3.65-7.02 5.46-10.19 5.46zm-10.33-8.59l.14.12 5.38 5.38a6.36 6.36 0 0 0 4.42 2.08c3 .19 6.31-1.55 9.87-5.1 3.74-3.75 5.67-7.3 5.57-10.28a5.22 5.22 0 0 0-1.41-3.59l-2.76-2.76-4.16 4.15a9 9 0 0 1-5.81 2.67 7.18 7.18 0 0 1-5.47-2.47l-8.86-8.86a5.1 5.1 0 0 0-.4-.35l-2.7-2.7V67.23h-14.32v-.51c.12-4.68-3.08-10.41-9.27-16.6-8.14-8.12-13.45-9.63-16.57-9.44a5.64 5.64 0 0 0-4.06 1.78L86 49.32l28.91 28.91h10.89v10.88zM98.05 53.47a4.18 4.18 0 0 1-3-1.23 4.31 4.31 0 0 1 .07-6.09 4.84 4.84 0 0 1 .7-.57l.11-.06a4.07 4.07 0 0 1 .69-.35 4.49 4.49 0 0 1 1.69-.31 4.17 4.17 0 0 1 4.14 4.14 4.45 4.45 0 0 1-.29 1.65 4.49 4.49 0 0 1-.37.73l-.06.11a4.25 4.25 0 0 1-.57.7 4.4 4.4 0 0 1-3.11 1.28zm.2-7.61a3.42 3.42 0 0 0-1.21.23 3.25 3.25 0 0 0-.56.28l-.1.05a4.42 4.42 0 0 0-.53.44 3.25 3.25 0 1 0 4.6 4.6 2.93 2.93 0 0 0 .45-.54.93.93 0 0 1 0-.1 3.06 3.06 0 0 0 .26-.51l.48.14-.47-.18a3.28 3.28 0 0 0 .23-1.27 3.14 3.14 0 0 0-3.14-3.14z"/><path class="cls-3" d="M109.54 155.53l3.12-3.12-4.51-4.51s-5.54-5.2-.23-10.52l8.86-8.86a5 5 0 0 0 .39-.43l2.52-2.52h17.88v-14.34c3.79.1 9.37-1.81 17-9.4 15.47-15.48 7.61-21.41 7.61-21.41l-7.07-7-.08-.1-14.81 14.74-14.64 14.65v10.59H115L97.31 131l-5.37 5.38s-6.69 5.29 3 15 14.6 4.15 14.6 4.15zm44.31-65.84a3.41 3.41 0 0 1-.6-.31.53.53 0 0 1-.1-.06 3.67 3.67 0 0 1-.62-.5 3.76 3.76 0 1 1 5.31-5.32 5 5 0 0 1 .51.63s0 .07.05.1a3.41 3.41 0 0 1 .31.6 3.88 3.88 0 0 1 .26 1.46 3.65 3.65 0 0 1-3.66 3.71 3.88 3.88 0 0 1-1.46-.31z"/><path class="cls-2" d="M105.35 157.49c-3.21 0-6.8-2-10.67-5.83s-5.55-7.3-5.36-10.56a7.08 7.08 0 0 1 2.37-5l23.14-23.16h10.37v-10.08l-.14-.15.25-.27L155 72.76l.36.41 7 7a6.41 6.41 0 0 1 2.09 4.61c.22 3.25-1.28 8.9-9.7 17.32-6.28 6.28-12 9.48-16.85 9.52V126h-18.1l-2.41 2.41c-.23.27-.39.43-.39.43l-8.86 8.86a6.56 6.56 0 0 0-2.19 4.78 8.19 8.19 0 0 0 2.41 5.2l4.78 4.77-3.38 3.38a6 6 0 0 1-4.2 1.71zm-7.69-26.32l-.09.11-5.38 5.38a6.49 6.49 0 0 0-2.12 4.5c-.17 3 1.56 6.38 5.14 10 3.76 3.76 7.33 5.69 10.35 5.61a5.35 5.35 0 0 0 3.69-1.46l2.86-2.86-4.24-4.23a8.91 8.91 0 0 1-2.64-5.73 7.29 7.29 0 0 1 2.41-5.32l8.86-8.86s.15-.16.36-.41l2.66-2.65h17.68v-14.4h.38c4.78.14 10.39-3 16.69-9.3 8.22-8.22 9.69-13.64 9.48-16.73a5.77 5.77 0 0 0-1.83-4.11L155 73.83l-28.88 28.88-.17.17v10.81h-10.81zm57.58-40.84a4.23 4.23 0 0 1-1.52-.29 4.28 4.28 0 0 1-.69-.35l-.12-.06a5.19 5.19 0 0 1-.68-.56 4.23 4.23 0 0 1-1.26-3 4 4 0 0 1 1.19-2.94 4.18 4.18 0 0 1 5.91.07 4.5 4.5 0 0 1 .56.68v.1a4.06 4.06 0 0 1 .65 2.32 4 4 0 0 1-4 4zm-1.83-1.28a2.77 2.77 0 0 0 .54.28l-.1.36.14-.35a4 4 0 0 0 1.32.24 3.34 3.34 0 0 0 3-4.59 2.76 2.76 0 0 0-.29-.57l.29-.25-.34.15a3.51 3.51 0 0 0-.46-.56 3.38 3.38 0 1 0-4.78 4.78 3.19 3.19 0 0 0 .57.46l-.11.37z"/><path class="cls-4" d="M114.2 140.49a3.67 3.67 0 0 0-.5.62.53.53 0 0 0-.06.1 3.41 3.41 0 0 0-.31.6 3.88 3.88 0 0 0-.26 1.46 3.7 3.7 0 0 0 1.07 2.56 3.63 3.63 0 0 0 2.56 1.07 3.88 3.88 0 0 0 1.46-.26 3.41 3.41 0 0 0 .6-.31l.1-.05a5 5 0 0 0 .63-.51 3.76 3.76 0 1 0-5.32-5.31z"/><path class="cls-1" d="M129.71 143L115 128.22l-14.7-14.64H89.7l-12.26 12h14.34c-.1 3.79 1.81 9.37 9.41 17 15.47 15.48 21.4 7.61 21.4 7.61l7-7.06.1-.08zm-10.19 2.82a5 5 0 0 1-.63.51l-.1.05a3.41 3.41 0 0 1-.6.31 3.88 3.88 0 0 1-1.46.26 3.63 3.63 0 0 1-2.56-1.07 3.7 3.7 0 0 1-1.07-2.56 3.88 3.88 0 0 1 .26-1.46 3.41 3.41 0 0 1 .31-.6.53.53 0 0 1 .06-.1 3.67 3.67 0 0 1 .5-.62 3.76 3.76 0 1 1 5.32 5.31z"/><path class="cls-2" d="M117.62 152.64c-3.35 0-8.84-1.81-16.79-9.75-6.25-6.26-9.47-11.91-9.56-16.82H77.44v-1h14.85v.52c-.13 4.67 3.08 10.41 9.26 16.59 8.16 8.16 13.53 9.64 16.59 9.44a5.56 5.56 0 0 0 4.06-1.78L129 143l-28.7-28.72-.21-.21H89.21v-1h10.89l.2-.2.36.34 29.8 29.8-.52.45-7 7a6.54 6.54 0 0 1-4.69 2.12zm-.86-5.2h-.08a4.15 4.15 0 0 1-4.12-4.12 4.49 4.49 0 0 1 .29-1.65 4 4 0 0 1 .37-.72l.06-.12a4.72 4.72 0 0 1 .57-.7 4.31 4.31 0 0 1 6.09-.07 4.16 4.16 0 0 1 1.23 3 4.42 4.42 0 0 1-1.3 3.05 4.25 4.25 0 0 1-.7.57l-.11.06a4.39 4.39 0 0 1-.68.35 4.55 4.55 0 0 1-1.62.35zm.2-7.6a3.39 3.39 0 0 0-2.4 1 3.79 3.79 0 0 0-.45.54v.1a3.06 3.06 0 0 0-.26.51 3.44 3.44 0 0 0-.24 1.31 3.14 3.14 0 0 0 3.14 3.14 3.94 3.94 0 0 0 1.27-.22 3.25 3.25 0 0 0 .56-.29l.1-.05a3.12 3.12 0 0 0 .53-.43 3.39 3.39 0 0 0 1-2.37 3.18 3.18 0 0 0-3.21-3.24z"/><path class="cls-5" d="M49.93 218l-.08-1.77c-.07-1.43-.7-2.87-1.66-2.87-1.7 0-2.14 1.75-2.14 6.94v3.39c0 4.07.6 7.14 2 7.14h.08a1.13 1.13 0 0 0 1-1.22v-6.65l-1.66-.24V222h3.59v9.42h-1.55l-.23-.5a2.12 2.12 0 0 1-2 .76c-2.6 0-4.3-3-4.3-10.22v.18c0-6.16 1.28-9.13 4.33-9.13A3.09 3.09 0 0 1 49 213a2.47 2.47 0 0 1 .63.47h.05a.25.25 0 0 0 .13.05.27.27 0 0 0 .11-.05h.05l.75-1h.34v5.5zm13.53 12.61l.27.63c-.13.21-.58.39-1.31.39-1.61 0-2.71-.71-2.71-2.92v-3.6c0-.94-.49-2.43-1.93-2.43h-1v8h.58v.65h-4.1v-.65h.89V213.4h-.91v-.65h4.51c2.53 0 4.77 1.38 4.77 4.41a6.77 6.77 0 0 1-1.07 4.12 2.67 2.67 0 0 1-1.07.91c-.08 0-.1.05-.1.13a.11.11 0 0 0 .08.13 4.67 4.67 0 0 1 1.09.94 4.25 4.25 0 0 1 1.1 2.89v3.44c0 .5.1 1 .52 1a.63.63 0 0 0 .39-.11zm-3.78-14.08c0-1.46-.6-3.08-1.93-3.08h-1V222h1c1.23 0 1.93-1.38 1.93-3.26z"/><path class="cls-5" d="M66.59 231.37h-3.1v-.65h1.12l4.41-18h1.56l4 18h.94v.65h-4.91v-.65h1l-.55-3.16h-4.62l-.68 3.16h.83zm.11-4.51h4.14l-2.08-9.42-.29 1.8zm17.5-14.03h3.2v.65h-1v17.89h-2.2l-5.69-12.49v11.84h1.07v.65h-3.23v-.65h1.07v-17.35h-1.07v-.65h2.45l6.46 13.17v-12.41H84.2zm6.25 18.54h-3.1v-.65h1.12l4.41-18h1.56l4 18h.94v.65h-4.91v-.65h1l-.55-3.16H90.3l-.68 3.16h.83zm.11-4.51h4.14l-2.08-9.42-.29 1.8zm14.91-14.11c3 0 5.19 3.26 5.19 9 0 6.52-1.09 9.6-5.19 9.6h-4.74v-.65h.88v-17.3h-.91v-.65zm2.32 8c0-2.48-.39-7.38-2.34-7.38h-1.23v17.32h1.23c2.32 0 2.34-6 2.34-8.69zm5.77 10.62h-3.11v-.65h1.12l4.41-18h1.56l4 18h.94v.65h-4.88v-.65h1l-.55-3.16h-4.65l-.68 3.16h.84zm.1-4.51h4.15l-2.09-9.42-.29 1.8zm19.58-14.4a4.13 4.13 0 0 1 4.3 4.38c0 5.35-6.07 8.56-6.7 12.18h3.78c1.13 0 1.91-.49 2.14-2.16h.65l-.26 4.51h-8c0-6.18 5.5-10.38 5.5-14.87 0-2.19-.65-3.15-1.88-3.15a1.89 1.89 0 0 0-2 1.48 1.3 1.3 0 0 1 1.15 1.36 1.4 1.4 0 0 1-1.43 1.38 1.38 1.38 0 0 1-1.39-1.38 3.82 3.82 0 0 1 4.14-3.73zm11.55.03c3.21 0 4.36 4.27 4.36 9.2 0 5.66-1.1 9.94-4.33 9.94h-.55c-3 0-4.35-4.33-4.35-9.94 0-5 1.33-9.2 4.35-9.2zm1.62 9.25v-.13c0-3.28-.26-8.65-2-8.65s-1.87 5.4-1.87 8.65v.13c0 4.18.41 9.37 2.08 9.37 1.5 0 1.79-5.11 1.79-9.37zm9.59-9.28a4.14 4.14 0 0 1 4.31 4.38c0 5.35-6.08 8.56-6.71 12.18h3.78c1.13 0 1.91-.49 2.14-2.16h.65l-.26 4.51h-8c0-6.18 5.5-10.38 5.5-14.87 0-2.19-.65-3.15-1.87-3.15a1.89 1.89 0 0 0-2 1.48 1.3 1.3 0 0 1 1.15 1.36 1.4 1.4 0 0 1-1.43 1.38 1.38 1.38 0 0 1-1.39-1.38 3.82 3.82 0 0 1 4.13-3.73zm11.5.03c3.21 0 4.36 4.27 4.36 9.2 0 5.66-1.1 9.94-4.33 9.94H167c-3 0-4.35-4.33-4.35-9.94 0-5 1.33-9.2 4.35-9.2zm1.62 9.25v-.13c0-3.28-.26-8.65-2-8.65s-1.88 5.4-1.88 8.65v.13c0 4.18.41 9.37 2.08 9.37 1.51 0 1.8-5.11 1.8-9.37z"/><path class="cls-1" d="M53.09 169.31c3.94 0 9 2.49 9 9.12 0 8.6-3.62 10.62-9.42 10.62h-2v16h1.76v1.24h-8.7V205h1.76v-34.44h-1.72v-1.25zm3.21 6.37c0-2.53-1.19-5-3.62-5h-2v16.94h2c2.48 0 3.62-2.28 3.62-5.44zm20.84-6.37h6.16v1.3h-2.54l-5.54 20v13.89h1.5v1.81h-8.29v-1.81h1.45v-16.07l-5.28-17.82h-2.28v-1.3h8.55v1.3h-1.3l4.51 17.51h.1l4.92-17.51h-2zm76.18-.01v9.33h-1.66v-3c0-3.26-2.85-5-6-5h-1.86v17c2.23 0 4.45-1.14 4.61-3.37v-2.48h1.14v13.05h-1.14v-2.43c-.16-2.23-2.38-3.37-4.61-3.37v15.9h2c3.05 0 5.85-1.76 5.85-5v-5.75h1.66v12.07H136.9v-1.3h1.76V170.6h-1.76v-1.3zm6.48 35.43a.43.43 0 0 0-.26-.1.39.39 0 0 0-.26.1l-.05.06-1.51 2h-.88l.21-10.78H159l.67 6c.26 1 .73 2.54 2.85 2.54 2.64 0 3.68-2.54 3.68-5.23 0-10.05-10.31-12.54-10.31-23.26 0-4.82 2.8-7.36 7-7.36a5.31 5.31 0 0 1 4.25 1.61l.1.1c.06.05.11.05.26.05s.16 0 .21-.05l.1-.1 1.25-1.61h.72v10.77h-1.91l-.78-6.83a3 3 0 0 0-3.11-2.23c-2 0-3.11 1.92-3.11 4 0 8.39 10.41 10.52 10.41 21 0 8.08-2.79 11.09-7.51 11.09a5.09 5.09 0 0 1-3.83-1.76c-.09.05-.09.05-.14-.01zm-70.11-14.26c0 7.21.68 10.05 3 10.05 1.91 0 2.9-3.52 2.9-5.75H97c0 3.16-1.09 7-5.29 7-3.57 0-7-4.25-7.2-14.4 0-9 2.49-13.58 6.89-13.58a4.15 4.15 0 0 1 2.44.73 2.23 2.23 0 0 1 .72.67v.11a.22.22 0 0 0 .16 0c.16 0 .21-.11.26-.11l1-1.45h.46v8h-1.36l-.21-2.9c-.2-2-.72-3.88-2.17-3.88-2.07 0-3 1.29-3 10.25zm17.88-16.68c4.61 0 7.46 6.22 7.46 13.68 0 8.55-2.85 14.3-7.46 14.3h-.78c-4.3 0-7.46-5.8-7.46-14.3 0-7.46 3.11-13.68 7.46-13.68zm-.16 26.79c2 0 2.44-3.27 2.44-9.43v-7.46c0-4.72-.42-8.65-2.75-8.65s-2.59 3.93-2.59 8.65v7.46c0 6.06.42 9.43 2.75 9.43zm20.93-26.48h4.46v1.14h-1.45v26h-3.06l-7.87-17.67v16.58h1.5v1.09h-4.51v-1.09h1.5v-25h-1.5V174h3.42l9 19.22v-18h-1.45z"/><path class="cls-3" d="M87.54 204.49h45.11v1.76H87.54zm0-35.18h45.11v1.76H87.54z"/></svg>