<svg id="Capa_1" data-name="Capa 1" xmlns="http://www.w3.org/2000/svg" viewBox="0 0 318.8 183.83"><defs><style>.cls-1{fill:#8d172d}.cls-2{fill:#fff}.cls-3{fill:#178d38}.cls-4{fill:none}.cls-5{fill:#3d0f17}</style></defs><title>propuesta_logo [Recuperado]</title><path class="cls-1" d="M65.24 98.75L47.56 81.07l-5.38-5.38s-5.29-6.69-15 3S23 93.3 23 93.3l3.12 3.12 4.5-4.51s5.21-5.54 10.52-.22l8.86 8.86s.15.15.43.38l2.57 2.52v17.88l12.26-12z"/><path class="cls-2" d="M53.48 121.33h-1v-17.67l-2.38-2.37a5.83 5.83 0 0 1-.43-.4L40.82 92a6.51 6.51 0 0 0-4.69-2.16A8.09 8.09 0 0 0 31 92.26l-4.87 4.87-3.48-3.48a6.16 6.16 0 0 1-1.73-4.28c-.11-3.31 1.86-7 5.87-11 3.77-3.77 7.35-5.6 10.65-5.39a7.26 7.26 0 0 1 5.09 2.42l23.21 23.14v10.8h-1V99L41.81 76a6.46 6.46 0 0 0-4.43-2c-3-.18-6.31 1.56-9.87 5.11-3.73 3.73-5.66 7.28-5.57 10.25a5.07 5.07 0 0 0 1.42 3.61l2.79 2.79 4.15-4.15a9 9 0 0 1 5.81-2.68h.1a7.46 7.46 0 0 1 5.31 2.45l8.86 8.86s.15.16.4.36l2.7 2.7z"/><path class="cls-3" d="M81 32.54l-3.1 3.12 4.5 4.51s5.54 5.2.23 10.51l-8.86 8.86s-.16.16-.39.43l-2.52 2.52H53v14.34c-3.79-.1-9.37 1.82-17 9.41-15.47 15.47-7.61 21.4-7.61 21.4l7.06 7 .08.1L50.33 100 65 85.36V74.75h10.6l17.65-17.68 5.38-5.38s6.69-5.29-3-15S81 32.54 81 32.54zM36.7 98.38a3.41 3.41 0 0 1 .6.31h.1a4.27 4.27 0 0 1 .63.51 3.76 3.76 0 1 1-5.32 5.31 3.67 3.67 0 0 1-.5-.62.53.53 0 0 1-.06-.1 4.28 4.28 0 0 1-.31-.6 3.88 3.88 0 0 1-.26-1.46 3.65 3.65 0 0 1 3.63-3.63 3.88 3.88 0 0 1 1.49.28z"/><path class="cls-2" d="M35.53 115.31l-.35-.4-7-7a6.44 6.44 0 0 1-2.08-4.62C25.83 100 27.33 94.4 35.75 86c6.29-6.29 12-9.49 16.85-9.53V62.12h18.11l2.41-2.41a4.87 4.87 0 0 1 .39-.43l8.85-8.86a6.57 6.57 0 0 0 2.2-4.78 8.23 8.23 0 0 0-2.42-5.2l-4.77-4.78 3.37-3.38a6.08 6.08 0 0 1 4.2-1.7c3.28-.09 7 1.85 10.93 5.83 3.75 3.75 5.55 7.3 5.37 10.56a7.14 7.14 0 0 1-2.38 5L75.72 75.13H65.35V85.2l.15.15-.26.28-29.66 29.65zM52.69 77.2c-4.71 0-10.23 3.13-16.41 9.31-8.2 8.2-9.68 13.61-9.48 16.7a5.85 5.85 0 0 0 1.83 4.13l6.94 6.9 29-29V74.38h10.84l23-23a6.48 6.48 0 0 0 2.13-4.5c.17-3-1.57-6.39-5.15-10-3.81-3.7-7.39-5.63-10.39-5.55a5.35 5.35 0 0 0-3.69 1.46l-2.85 2.85 4.24 4.24a8.93 8.93 0 0 1 2.64 5.73A7.26 7.26 0 0 1 82.89 51L74 59.81s-.15.15-.36.4L71 62.87H53.35v14.35h-.66zm-17.18 28.9a4.27 4.27 0 0 1-3-1.26 4.12 4.12 0 0 1-.56-.69l-.05-.09a5.53 5.53 0 0 1-.35-.67 4.48 4.48 0 0 1-.3-1.65 4 4 0 0 1 4-4 4.2 4.2 0 0 1 1.6.29 3.61 3.61 0 0 1 .71.35l.11.06a5.11 5.11 0 0 1 .68.55 4.25 4.25 0 0 1 1.26 3 4 4 0 0 1-1.19 3 4.06 4.06 0 0 1-2.91 1.11zm-2.95-2.35a4 4 0 0 0 .46.56 3.44 3.44 0 0 0 4.85.07 3.27 3.27 0 0 0 1-2.41 3.48 3.48 0 0 0-1-2.44 3 3 0 0 0-.56-.46h-.1a2.77 2.77 0 0 0-.54-.28 3.8 3.8 0 0 0-1.32-.24 3.28 3.28 0 0 0-3.35 3.2 3.76 3.76 0 0 0 .24 1.32 2.62 2.62 0 0 0 .29.58l-.29.24z"/><path class="cls-1" d="M143.07 90.53L140 87.41l-4.51 4.51s-5.2 5.54-10.52.22l-8.86-8.86s-.15-.15-.42-.38l-2.53-2.52V62.49H98.78c.1-3.78-1.82-9.37-9.41-17C73.9 30.06 68 37.92 68 37.92l-7 7.06-.1.09 14.7 14.78 14.65 14.64h10.61v10.59l17.68 17.68 5.38 5.38s5.3 6.69 15-3 4.15-14.61 4.15-14.61zM77.23 46.21a4.28 4.28 0 0 1-.31.6v.1a4.31 4.31 0 0 1-.51.62A3.76 3.76 0 1 1 71 42.27a3.74 3.74 0 0 1 .62-.51h.1a3.41 3.41 0 0 1 .6-.31 4.09 4.09 0 0 1 1.46-.26 3.7 3.7 0 0 1 2.56 1.07 3.65 3.65 0 0 1 1.07 2.56 3.85 3.85 0 0 1-.18 1.39z"/><path class="cls-2" d="M129.1 110.89h-.47a7.26 7.26 0 0 1-5.09-2.42l-23.18-23.18V75h-9.9l-.2.2-.37-.35-29.77-29.78.5-.43 7-7a6.54 6.54 0 0 1 4.7-2.12c3.26-.25 9 1.27 17.41 9.73C96 51.43 99.19 57.09 99.28 62h14.33v18.17l2.39 2.37a4.05 4.05 0 0 1 .43.4l8.86 8.85A6.36 6.36 0 0 0 130 94a8.11 8.11 0 0 0 5.12-2.38L140 86.7l3.46 3.47a6.12 6.12 0 0 1 1.74 4.29c.11 3.31-1.86 7-5.86 11-3.65 3.61-7.07 5.43-10.24 5.43zm-10.33-8.6l.14.12 5.38 5.38a6.39 6.39 0 0 0 4.42 2.09c3 .18 6.32-1.56 9.87-5.11 3.73-3.73 5.66-7.28 5.58-10.25a5.21 5.21 0 0 0-1.42-3.62L140 88.12l-4.15 4.15A9 9 0 0 1 130 95a7.37 7.37 0 0 1-5.41-2.45l-8.86-8.86a3.29 3.29 0 0 0-.39-.36l-2.71-2.7V63H98.26v-.51c.14-4.68-3.06-10.42-9.26-16.6-8.16-8.17-13.52-9.64-16.59-9.45a5.64 5.64 0 0 0-4.06 1.78l-6.81 6.86L90.46 74h10.9v10.87zM73.59 49.23a4.18 4.18 0 0 1-3-1.22 4.32 4.32 0 0 1 .07-6.1 4.92 4.92 0 0 1 .71-.57l.11-.06a6.11 6.11 0 0 1 .67-.35 5.07 5.07 0 0 1 1.7-.31A4.15 4.15 0 0 1 78 44.75a4.29 4.29 0 0 1-.28 1.62v.08a5.28 5.28 0 0 1-.34.67.41.41 0 0 1-.07.11 3.8 3.8 0 0 1-.57.7 4.31 4.31 0 0 1-3 1.3zm.2-7.61a3.42 3.42 0 0 0-1.21.23 3.25 3.25 0 0 0-.56.28h-.09a4.51 4.51 0 0 0-.54.44 3.31 3.31 0 0 0-.07 4.68 3.14 3.14 0 0 0 2.31.93 3.43 3.43 0 0 0 2.37-1 3.93 3.93 0 0 0 .44-.55.41.41 0 0 1 0-.09 3.16 3.16 0 0 0 .26-.52 3.56 3.56 0 0 0 .3-1.26 3.17 3.17 0 0 0-.92-2.21 3.23 3.23 0 0 0-2.22-.93z"/><path class="cls-3" d="M85.08 151.29l3.12-3.12-4.51-4.51s-5.54-5.2-.23-10.51l8.86-8.86s.16-.16.39-.43l2.52-2.52h17.88V107c3.79.1 9.38-1.82 17-9.41 15.47-15.47 7.61-21.4 7.61-21.4l-7.07-7-.08-.1-14.81 14.74-14.64 14.64v10.59H90.53l-17.68 17.7-5.38 5.37s-6.69 5.3 3 15 14.61 4.16 14.61 4.16zm44.31-65.84a3.8 3.8 0 0 1-.6-.31h-.1a4.31 4.31 0 0 1-.62-.51 3.76 3.76 0 1 1 5.31-5.31 4.31 4.31 0 0 1 .51.62s0 .07.05.1a3.8 3.8 0 0 1 .31.6 3.88 3.88 0 0 1 .26 1.46 3.65 3.65 0 0 1-3.63 3.63 3.88 3.88 0 0 1-1.49-.28z"/><path class="cls-2" d="M80.89 153.26c-3.21 0-6.8-2-10.67-5.84s-5.55-7.3-5.36-10.56a7.15 7.15 0 0 1 2.37-5l23.14-23.16h10.37V98.62l-.14-.14.25-.28 29.67-29.66.34.4 7 7a6.43 6.43 0 0 1 2.14 4.6c.22 3.25-1.27 8.89-9.7 17.31-6.28 6.29-12 9.49-16.85 9.53v14.33H95.39L93 124.12c-.23.27-.39.43-.39.43l-8.86 8.86a6.56 6.56 0 0 0-2.19 4.78 8.24 8.24 0 0 0 2.41 5.2l4.78 4.78-3.38 3.38a6.06 6.06 0 0 1-4.2 1.7zm-7.69-26.33l-.09.11-5.38 5.38a6.49 6.49 0 0 0-2.12 4.5c-.17 3 1.56 6.39 5.14 10 3.77 3.77 7.38 5.72 10.37 5.61a5.24 5.24 0 0 0 3.67-1.53l2.86-2.85-4.24-4.24a8.88 8.88 0 0 1-2.64-5.73 7.29 7.29 0 0 1 2.41-5.32l8.88-8.86s.15-.15.36-.4l2.66-2.6h17.66v-14.39h.38c4.77.13 10.39-3 16.69-9.3 8.23-8.22 9.69-13.64 9.48-16.73a5.73 5.73 0 0 0-1.83-4.1l-6.93-6.9-29 29v10.82H90.68zm57.59-40.84a4.24 4.24 0 0 1-1.53-.29 3.27 3.27 0 0 1-.7-.35l-.12-.06a5.11 5.11 0 0 1-.68-.55 4.25 4.25 0 0 1-1.26-3 4 4 0 0 1 1.19-3 4.2 4.2 0 0 1 5.92.07 4.63 4.63 0 0 1 .55.69l.05.09a4.39 4.39 0 0 1 .35.67 4.48 4.48 0 0 1 .3 1.65 4 4 0 0 1-4 4zm-.21-7.61a3.31 3.31 0 0 0-3.33 3.38 3.48 3.48 0 0 0 1 2.44 2.8 2.8 0 0 0 .57.46h.09a2.77 2.77 0 0 0 .54.28 3.34 3.34 0 0 0 4.34-4.34 2.62 2.62 0 0 0-.29-.58l.3-.24-.35.14a4.09 4.09 0 0 0-.45-.56 3.56 3.56 0 0 0-2.42-.98z"/><path class="cls-4" d="M89.74 136.25a3.67 3.67 0 0 0-.5.62l-.06.1a5.71 5.71 0 0 0-.31.6 3.92 3.92 0 0 0-.26 1.46 3.65 3.65 0 0 0 3.63 3.64 4.09 4.09 0 0 0 1.46-.26 3.41 3.41 0 0 0 .6-.31l.1-.05a4.27 4.27 0 0 0 .63-.51 3.76 3.76 0 1 0-5.32-5.31z"/><path class="cls-1" d="M105.25 138.75L90.49 124l-14.64-14.66H65.24L53 121.33h14.32c-.1 3.79 1.82 9.38 9.41 17 15.47 15.47 21.4 7.61 21.4 7.61l7-7.07.09-.08zm-10.19 2.81a4.27 4.27 0 0 1-.63.51l-.1.05a3.41 3.41 0 0 1-.6.31 4.09 4.09 0 0 1-1.46.26 3.65 3.65 0 0 1-3.63-3.64 3.92 3.92 0 0 1 .26-1.46 5.71 5.71 0 0 1 .31-.6l.06-.1a3.67 3.67 0 0 1 .5-.62 3.76 3.76 0 1 1 5.32 5.31z"/><path class="cls-2" d="M93.17 148.4c-3.36 0-8.85-1.8-16.8-9.75-6.25-6.25-9.46-11.91-9.55-16.82H53v-1h14.83v.52c-.13 4.67 3.08 10.41 9.26 16.59 8.16 8.17 13.54 9.65 16.59 9.45a5.64 5.64 0 0 0 4.06-1.78l6.81-6.85-28.89-28.9H64.75v-1h10.89l.2-.2.36.35 29.8 29.76-.52.44-7 7a6.5 6.5 0 0 1-4.69 2.12c-.2.07-.41.07-.62.07zm-.87-5.19h-.08a4.17 4.17 0 0 1-4.12-4.13 4.4 4.4 0 0 1 .29-1.64 3.83 3.83 0 0 1 .37-.73l.06-.11a4.37 4.37 0 0 1 6.66-.78 4.16 4.16 0 0 1 1.23 3 4.4 4.4 0 0 1-1.3 3 4.31 4.31 0 0 1-.7.58l-.11.06a6.24 6.24 0 0 1-.68.35 4.55 4.55 0 0 1-1.62.4zm.21-7.61a3.39 3.39 0 0 0-2.41 1 3.32 3.32 0 0 0-.44.55v.09a3.2 3.2 0 0 0-.27.52 3.44 3.44 0 0 0-.24 1.31 3.17 3.17 0 0 0 .92 2.21 3.25 3.25 0 0 0 2.22.93 3.48 3.48 0 0 0 1.27-.23 3.25 3.25 0 0 0 .56-.28h.09a3.84 3.84 0 0 0 .54-.44 3.39 3.39 0 0 0 1-2.36 3.18 3.18 0 0 0-3.2-3.25z"/><path class="cls-5" d="M160.32 108.07l-.08-1.78c-.08-1.43-.7-2.87-1.67-2.87-1.69 0-2.14 1.75-2.14 6.94v3.39c0 4.07.6 7.15 2 7.15h.08a1.14 1.14 0 0 0 1-1.23V113l-1.67-.23v-.73h3.6v9.41h-1.54l-.23-.5a2.12 2.12 0 0 1-2 .76c-2.61 0-4.3-3-4.3-10.22v.18c0-6.15 1.28-9.13 4.33-9.13a3.09 3.09 0 0 1 1.64.5 3.23 3.23 0 0 1 .63.47h.05a.17.17 0 0 0 .13 0 .16.16 0 0 0 .1 0h.05l.76-1h.34v5.51zm13.53 12.64l.26.63c-.13.21-.57.39-1.3.39-1.62 0-2.71-.7-2.71-2.92v-3.6c0-.94-.5-2.42-1.93-2.42h-1v8h.57v.65h-4.09v-.65h.89V103.5h-.92v-.65h4.51c2.53 0 4.78 1.38 4.78 4.41a6.77 6.77 0 0 1-1.07 4.12 2.74 2.74 0 0 1-1.07.91c-.08 0-.11 0-.11.13a.12.12 0 0 0 .08.13 5 5 0 0 1 1.1.94 4.35 4.35 0 0 1 1.09 2.9v3.44c0 .49.11 1 .52 1a.64.64 0 0 0 .4-.12zm-3.78-14.08c0-1.46-.6-3.07-1.93-3.07h-1v8.52h1c1.23 0 1.93-1.38 1.93-3.26z"/><path class="cls-5" d="M177 121.47h-3.1v-.65h1.1l4.41-18H181l4 18h.94v.65H181v-.65h1l-.55-3.16h-4.62l-.67 3.16h.84zm.11-4.51h4.14l-2.08-9.42-.29 1.8zm17.47-14.03h3.21v.65h-1v17.89h-2.17L188.9 109v11.84h1.1v.65h-3.24v-.65h1.07v-17.36h-1.07v-.66h2.45l6.44 13.18v-12.42h-1.07zm6.26 18.54h-3.1v-.65h1.12l4.4-18h1.57l4 18h.94v.65h-4.87v-.65h1l-.55-3.16h-4.62l-.68 3.16h.84zm.1-4.51h4.15l-2.09-9.42-.28 1.8zm14.92-14.11c2.95 0 5.19 3.26 5.19 9 0 6.52-1.1 9.6-5.19 9.6h-4.75v-.65h.89v-17.3h-.91v-.65zm2.32 8c0-2.48-.39-7.38-2.35-7.38h-1.22v17.32h1.22c2.32 0 2.35-6 2.35-8.69zm5.76 10.62h-3.1v-.65H222l4.41-18h1.56l4 18h.93v.65H228v-.65h1l-.55-3.16h-4.61l-.68 3.16h.83zm.11-4.51h4.14l-2.08-9.42-.29 1.8zm19.58-14.4a4.14 4.14 0 0 1 4.3 4.39c0 5.34-6.07 8.55-6.7 12.17H245c1.12 0 1.9-.49 2.14-2.16h.65l-.26 4.51h-7.95c0-6.18 5.5-10.38 5.5-14.86 0-2.19-.65-3.16-1.88-3.16a1.89 1.89 0 0 0-2 1.49 1.29 1.29 0 0 1 1.15 1.35 1.41 1.41 0 0 1-1.44 1.39 1.38 1.38 0 0 1-1.38-1.39 3.82 3.82 0 0 1 4.1-3.73zm11.55.03c3.21 0 4.35 4.28 4.35 9.21 0 5.65-1.09 9.93-4.32 9.93h-.55c-3 0-4.36-4.33-4.36-9.93 0-5 1.33-9.21 4.36-9.21zm1.62 9.26v-.13c0-3.29-.27-8.66-2-8.66s-1.88 5.4-1.88 8.66v.13c0 4.17.42 9.36 2.09 9.36 1.5 0 1.79-5.14 1.79-9.36zm9.54-9.29a4.14 4.14 0 0 1 4.3 4.39c0 5.34-6.07 8.55-6.7 12.17h3.78c1.12 0 1.9-.49 2.14-2.16h.65l-.26 4.51h-7.95c0-6.18 5.5-10.38 5.5-14.86 0-2.19-.65-3.16-1.88-3.16a1.89 1.89 0 0 0-2 1.49 1.29 1.29 0 0 1 1.15 1.35 1.41 1.41 0 0 1-1.44 1.39 1.38 1.38 0 0 1-1.38-1.39 3.82 3.82 0 0 1 4.09-3.73zm11.55.03c3.21 0 4.35 4.28 4.35 9.21 0 5.65-1.09 9.93-4.32 9.93h-.55c-3 0-4.36-4.33-4.36-9.93 0-5 1.33-9.21 4.36-9.21zm1.62 9.26v-.13c0-3.29-.26-8.66-2-8.66s-1.88 5.4-1.88 8.66v.13c0 4.17.42 9.36 2.09 9.36 1.5 0 1.79-5.14 1.79-9.36z"/><path class="cls-1" d="M163.48 59.42c3.93 0 9 2.48 9 9.11 0 8.6-3.63 10.62-9.43 10.62h-2v16h1.77v1.24h-8.71v-1.28h1.76V60.66h-1.76v-1.24zm3.21 6.37c0-2.54-1.19-5-3.63-5h-2v16.96h2c2.49 0 3.63-2.28 3.63-5.44zm20.83-6.37h6.17v1.29h-2.54l-5.55 20v13.88h1.51v1.81h-8.29v-1.81h1.45V78.53L175 60.71h-2.3v-1.29h8.55v1.29H180l4.5 17.51h.11l4.92-17.51h-2zm76.18-.02v9.33h-1.65v-3c0-3.26-2.85-5-6-5h-1.87v17c2.23 0 4.46-1.14 4.61-3.37v-2.47H260v13h-1.14v-2.38c-.15-2.23-2.38-3.37-4.61-3.37V95h2c3.06 0 5.86-1.76 5.86-5v-5.73h1.65v12.07h-16.48V95H249V60.7h-1.76v-1.3zm6.48 35.44a.39.39 0 0 0-.26-.11.44.44 0 0 0-.26.11h-.05l-1.5 2h-.88l.21-10.78h1.91l.68 6c.26 1 .72 2.54 2.85 2.54 2.64 0 3.67-2.54 3.67-5.23 0-10.05-10.31-12.54-10.31-23.26 0-4.82 2.8-7.36 7-7.36a5.35 5.35 0 0 1 4.25 1.61l.1.1h.26a.28.28 0 0 0 .21 0l.1-.1 1.24-1.61h.73v10.81h-1.92l-.78-6.84a3 3 0 0 0-3.1-2.23c-2 0-3.11 1.92-3.11 4 0 8.39 10.41 10.52 10.41 21 0 8.09-2.8 11.09-7.51 11.09a5.06 5.06 0 0 1-3.83-1.76c-.06.07-.06.07-.11.02zm-70.1-14.26c0 7.2.67 10 2.95 10 1.92 0 2.9-3.53 2.9-5.75h1.45c0 3.16-1.08 7-5.28 7-3.58 0-7-4.25-7.2-14.4 0-9 2.49-13.57 6.89-13.57a4.12 4.12 0 0 1 2.43.72 2.41 2.41 0 0 1 .73.68l.05.1a.19.19 0 0 0 .16 0c.15 0 .2-.1.25-.1l1-1.45h.47v8h-1.45l-.21-2.9c-.21-2-.73-3.89-2.18-3.89-2.07 0-3 1.29-3 10.26zM218 63.9c4.61 0 7.46 6.21 7.46 13.67 0 8.55-2.85 14.3-7.46 14.3h-.77c-4.3 0-7.46-5.8-7.46-14.3 0-7.46 3.1-13.67 7.46-13.67zm-.15 26.78c2 0 2.43-3.26 2.43-9.43v-7.46c0-4.71-.41-8.65-2.74-8.65s-2.59 3.94-2.59 8.65v7.46c0 6.06.41 9.43 2.74 9.43zm20.88-26.47h4.45v1.14h-1.45v26h-3l-7.93-17.71v16.57h1.51v1.09h-4.51v-1.09h1.5v-25h-1.5V64.1h3.42l9 19.22v-18h-1.45z"/><path class="cls-3" d="M197.93 94.59h45.11v1.76h-45.11zm0-35.17h45.11v1.76h-45.11z"/></svg>